<?xml version="1.0" encoding="UTF-8"?>
<svg id="Calque_2" data-name="Calque 2" xmlns="http://www.w3.org/2000/svg" viewBox="0 0 1406.9 822.7">
  <defs>
    <style>
      .cls-1 {
        fill: #fff;
      }
    </style>
  </defs>
  <path class="cls-1" d="M346.36,733.56c-6.4-3.69-65.07,16.94-150.96-10.62-4.68-83.58-12.9-352.75-17.11-480.61,0,0-2.31-71.72-4.03-204.72-.21-15.28-.76-29.95-6.59-30.46-6.81-.6-12.05,23.65-13.99,33.76-19.75,102.08,12.12,603.22,16.46,711.24,23.28,5.41,28.74,3.81,28.74,3.81,39.58-.51,76.63,2.78,139.19,1.13,28.82-12.34,22.37-15.4,8.28-23.53h0Z"/>
  <path class="cls-1" d="M391.59,163.57c-46.1-37.86-71.4,112.26-71.62,167.93-.28,67.04-.75,156.58,37.04,197.57,13.5,14.65,74.09,68.32,81.5-57.63,3.91-66.57-6.27-274.47-46.92-307.88ZM386.65,515.9c-28.37-1.9-34.58-53.51-43.74-106.26-9.46-54.47-8.59-174.83,9.99-203.25,24.21-37.04,58.31-13.25,62.56,105.36,4.94,137.47-4.12,205.8-28.82,204.15h.01Z"/>
  <path class="cls-1" d="M593.04,12.73c.22-27.79-13.58-5.66-13.78,24.08-3.78,551.55-10.71,580.35,6.59,740.04,8.24,10.71,21.4,14.81,32.93,13.99-7.41-123.48-26.23-716.33-25.74-778.13h0Z"/>
  <path class="cls-1" d="M801.41,125.08c16.62-31.24,88.21-9.37,90.76,9.37,5.32,39.04-2.97,63.04,1.71,75.43,18.03,47.75,22.3-16.99,17.9-54.54-6.25-53.22-51.56-109.51-108.66-80.11-37.58,19.36-50.7,113.77-12.28,186.31,32.32,61,48.57,71.81,87.25,141.59,61.59,111.08,63.2,235.35,41.98,272.47-59.26,103.73-132.53,18.11-141.59-55.98-7.4-60.56-46.75,13.74,25.52,103.73,19.11,23.8,86.43,73.27,132.63,9.71,18.37-25.27,61.63-158.71-42.91-337.59-70.06-119.88-134.93-190.28-92.31-270.38Z"/>
  <path class="cls-1" d="M1244.95,48.27c-.03-2.59-3.06-4.07-5.05-2.43-2.71,2.25-5.71,6.55-9.59,13.5-.25.44-.38.96-.4,1.47-3.91,181.13-5.74,347.5-7.24,424.68-.03,1.75-1.5,3.1-3.25,3.03-30.14-1.34-70.97,1.63-97.99-.49-1.57-.12-2.81-1.38-2.88-2.96-5.18-123.92-8.13-351.47-12.46-428.67-.15-2.5-3.06-3.87-5-2.28-3.16,2.57-6.38,6.87-7.62,8.6-.35.49-.54,1.04-.57,1.65-3.84,77.59-2.53,499.74.03,715.16,0,.74.28,1.44.76,1.99,4.66,5.32,19.52,20.95,29.73,20.56,1.68-.06,2.99-1.44,2.99-3.12-.37-83.62-8.38-191.7-5.62-274.97.06-1.71,1.47-3.03,3.18-3,24.9.44,61.81,6.03,90.95,6.97,1.62.06,2.93,1.32,3.02,2.93,5.71,100.52-2.47,198.78,4.6,270.47.06.59.28,1.13.65,1.6,5.9,7.44,14.93,18.43,24.08,19.7,1.93.26,3.6-1.34,3.49-3.28-9.81-166.93-4.35-621.14-5.8-771.12h0Z"/>
  <path class="cls-1" d="M18.55,331.31c-9.1-.38-22.09,21.95-17.65,41.44,4.3,18.89,24.48,33.12,32.23,29.17,6.37-3.27,4.38-18.84,3.07-29.17-1.56-12.19-7.47-41.02-17.65-41.44Z"/>
  <path class="cls-1" d="M1406.82,361.11c-1.53-18.74-5.59-35.33-13.77-35.39-7.22-.04-15.31,22.87-16.93,35.39-1.65,12.8,9.37,32.55,16.89,34.67,6.12,1.72,14.77-23.06,13.81-34.67h0Z"/>
</svg>