<?xml version="1.0" encoding="UTF-8"?>
<svg id="Calque_2" data-name="Calque 2" xmlns="http://www.w3.org/2000/svg" viewBox="0 0 1801.58 1013.39">
  <path d="M978.63,760.12c-4.35-2.51-44.24,11.52-102.63-7.22-3.18-56.82-8.77-239.82-11.63-326.74,0,0-1.57-48.76-2.74-139.18-.14-10.39-.52-20.36-4.48-20.71-4.63-.41-8.19,16.08-9.51,22.95-13.43,69.4,8.24,410.1,11.19,483.54,15.83,3.68,19.54,2.59,19.54,2.59,26.91-.35,52.1,1.89,94.63.77,19.59-8.39,15.21-10.47,5.63-16Z"/>
  <path d="M1009.38,372.61c-31.34-25.74-48.54,76.32-48.69,114.17-.19,45.58-.51,106.45,25.18,134.32,9.18,9.96,50.37,46.45,55.41-39.18,2.66-45.26-4.26-186.6-31.9-209.31ZM1006.02,612.14c-19.29-1.29-23.51-36.38-29.74-72.24-6.43-37.03-5.84-118.86,6.79-138.18,16.46-25.18,39.64-9.01,42.53,71.63,3.36,93.46-2.8,139.91-19.59,138.79Z"/>
  <path d="M1146.34,270.06c.15-18.89-9.23-3.85-9.37,16.37-2.57,374.97-7.28,394.55,4.48,503.12,5.6,7.28,14.55,10.07,22.39,9.51-5.04-83.95-17.83-487-17.5-529.01Z"/>
  <path d="M1288,346.44c11.3-21.24,59.97-6.37,61.7,6.37,3.62,26.54-2.02,42.86,1.16,51.28,12.26,32.46,15.16-11.55,12.17-37.08-4.25-36.18-35.05-74.45-73.87-54.46-25.55,13.16-34.47,77.35-8.35,126.66,21.97,41.47,33.02,48.82,59.32,96.26,41.87,75.52,42.97,160,28.54,185.24-40.29,70.52-90.1,12.31-96.26-38.06-5.03-41.17-31.78,9.34,17.35,70.52,12.99,16.18,58.76,49.81,90.17,6.6,12.49-17.18,41.9-107.9-29.17-229.51-47.63-81.5-91.73-129.36-62.76-183.82Z"/>
  <path d="M1589.54,294.22c-.02-1.76-2.08-2.77-3.43-1.65-1.84,1.53-3.88,4.45-6.52,9.18-.17.3-.26.65-.27,1-2.66,123.14-3.9,236.25-4.92,288.72-.02,1.19-1.02,2.11-2.21,2.06-20.49-.91-48.25,1.11-66.62-.33-1.07-.08-1.91-.94-1.96-2.01-3.52-84.25-5.53-238.95-8.47-291.43-.1-1.7-2.08-2.63-3.4-1.55-2.15,1.75-4.34,4.67-5.18,5.85-.24.33-.37.71-.39,1.12-2.61,52.75-1.72,339.75.02,486.2,0,.5.19.98.52,1.35,3.17,3.62,13.27,14.24,20.21,13.98,1.14-.04,2.03-.98,2.03-2.12-.25-56.85-5.7-130.33-3.82-186.94.04-1.16,1-2.06,2.16-2.04,16.93.3,42.02,4.1,61.83,4.74,1.1.04,1.99.9,2.05,1.99,3.88,68.34-1.68,135.14,3.13,183.88.04.4.19.77.44,1.09,4.01,5.06,10.15,12.53,16.37,13.39,1.31.18,2.45-.91,2.37-2.23-6.67-113.49-2.96-422.28-3.94-524.25Z"/>
  <path d="M755.77,486.65c-6.19-.26-15.02,14.92-12,28.17,2.92,12.84,16.64,22.52,21.91,19.83,4.33-2.22,2.98-12.81,2.09-19.83-1.06-8.29-5.08-27.89-12-28.17Z"/>
  <path d="M1699.59,506.91c-1.04-12.74-3.8-24.02-9.36-24.06-4.91-.03-10.41,15.55-11.51,24.06-1.12,8.7,6.37,22.13,11.48,23.57,4.16,1.17,10.04-15.68,9.39-23.57Z"/>
</svg>